<?xml version="1.0" encoding="UTF-8" standalone="no"?>
<!DOCTYPE svg PUBLIC "-//W3C//DTD SVG 1.1//EN" "http://www.w3.org/Graphics/SVG/1.1/DTD/svg11.dtd">
<svg width="100%" height="100%" viewBox="0 0 140 127" version="1.1" xmlns="http://www.w3.org/2000/svg" xmlns:xlink="http://www.w3.org/1999/xlink" xml:space="preserve" xmlns:serif="http://www.serif.com/" style="fill-rule:evenodd;clip-rule:evenodd;stroke-linecap:round;stroke-linejoin:round;">
    <path d="M117.684,39.81C168.678,116.447 87.578,101.214 54.009,110.756C20.44,120.298 21.749,107.834 12.175,74.152C2.601,40.471 17.201,51.142 50.77,41.6C75.29,21.572 87.247,-23.67 117.684,39.81Z" style="fill:rgb(75,191,232);fill-rule:nonzero;"/>
    <path d="M110.514,31.016C110.514,28.427 108.412,26.325 105.823,26.325L103.264,26.325C100.674,26.325 98.572,28.427 98.572,31.016C98.572,33.606 100.674,35.708 103.264,35.708L105.823,35.708C108.412,35.708 110.514,33.606 110.514,31.016Z" style="fill:rgb(7,75,119);"/>
    <path d="M41.421,31.016C41.421,28.427 39.319,26.325 36.73,26.325L34.171,26.325C31.581,26.325 29.479,28.427 29.479,31.016C29.479,33.606 31.581,35.708 34.171,35.708L36.73,35.708C39.319,35.708 41.421,33.606 41.421,31.016Z" style="fill:rgb(7,75,119);"/>
    <path d="M82.44,57.431C79.572,65.808 81.087,73.914 85.824,75.536C90.562,77.158 96.728,71.683 99.597,63.306C102.465,54.929 108.453,24.914 103.715,23.292C98.977,21.669 85.309,49.054 82.44,57.431Z" style="fill:rgb(57,65,103);fill-rule:nonzero;"/>
    <path d="M61.326,57.001C65.39,65.666 65.009,74.414 60.475,76.541C55.941,78.667 48.971,73.366 44.907,64.701C40.843,56.035 30.596,24.624 35.13,22.498C39.663,20.372 57.262,48.335 61.326,57.001Z" style="fill:rgb(57,65,103);fill-rule:nonzero;"/>
    <path d="M84.709,95.938C84.735,95.938 84.752,95.929 84.778,95.905C84.408,95.929 84.356,95.938 84.709,95.938Z" style="fill:white;fill-rule:nonzero;"/>
    <path d="M88.209,95.909C88.226,95.925 88.243,95.935 88.26,95.935C88.57,95.935 88.527,95.925 88.209,95.909Z" style="fill:white;fill-rule:nonzero;"/>
    <path d="M71.332,28.994C71.752,28.85 83.484,28.849 89.347,38.498C92.11,43.471 97.347,58.408 96.199,78.371C96.199,82.232 95.53,91.851 87.963,96.676C81.54,100.769 76.365,101.301 72.335,101.414C67.836,101.54 62.119,101.365 54.995,96.822C47.427,91.997 46.477,82.379 46.477,78.518C45.237,55.195 50.517,42.217 53.311,38.644C59.18,28.994 70.912,28.85 71.332,28.994Z" style="fill:rgb(57,65,103);fill-rule:nonzero;"/>
    <path d="M86.521,97.788C86.529,97.788 86.538,97.779 86.547,97.772C86.391,97.779 86.365,97.788 86.521,97.788Z" style="fill:white;fill-rule:nonzero;"/>
    <path d="M83.376,39.802C80.262,36.429 76.652,39.298 74.357,41.657C72.66,43.406 72.308,43.686 71.423,43.698C70.503,43.711 70.001,43.406 68.309,41.657C66.014,39.293 62.404,36.424 59.291,39.803C56.177,43.176 51.092,49.088 51.912,68.161C52.732,87.234 61.015,92.678 65.324,94.451C69.287,96.081 73.96,96.722 79.446,94.047C82.847,92.385 89.94,87.225 90.758,68.153C91.576,49.086 86.495,43.181 83.376,39.802Z" style="fill:white;fill-rule:nonzero;"/>
    <path d="M86.424,97.774C86.433,97.782 86.441,97.782 86.45,97.782C86.58,97.791 86.562,97.782 86.424,97.774Z" style="fill:white;fill-rule:nonzero;"/>
    <path d="M75.14,58.099C73.488,55.336 72.718,54.675 72.027,54.675C71.336,54.675 70.395,55.125 68.697,58.024C68.125,59.013 67.48,60.493 67.638,61.223C67.789,61.953 71.29,63.289 72.284,63.208C73.304,63.126 75.95,61.891 76.115,61.284C76.292,60.622 75.752,59.115 75.14,58.099Z" style="fill:rgb(255,146,0);fill-rule:nonzero;"/>
    <path d="M50.805,103.452C50.805,99.485 54.02,96.27 57.986,96.27L62.735,96.27C66.701,96.27 69.917,99.485 69.917,103.452C69.917,104.859 68.776,106 67.368,106L53.353,106C51.946,106 50.805,104.859 50.805,103.452Z" style="fill:rgb(255,146,0);fill-rule:nonzero;"/>
    <path d="M73.835,103.452C73.835,99.485 77.05,96.27 81.016,96.27L85.766,96.27C89.732,96.27 92.947,99.485 92.947,103.452C92.947,104.859 91.806,106 90.399,106L76.383,106C74.976,106 73.835,104.859 73.835,103.452Z" style="fill:rgb(255,146,0);fill-rule:nonzero;"/>
    <path d="M80.699,49.38L75.572,52.778L80.685,54.924" style="fill:none;fill-rule:nonzero;stroke:rgb(7,75,119);stroke-width:1.65px;"/>
    <path d="M62.787,49.334L67.897,52.759L62.773,54.878" style="fill:none;fill-rule:nonzero;stroke:rgb(7,75,119);stroke-width:1.65px;"/>
    <g id="dumbell---NO-BG-color.svg" serif:id="dumbell - NO BG color.svg" transform="matrix(0.506076,0,0,0.506076,72.0674,60.4711)">
        <g transform="matrix(1,0,0,1,-128,-112.5)">
            <g transform="matrix(0.1,0,0,-0.1,0,225)">
                <path d="M213,2223L200,2218L200,2100L51,2100L40,2081L30,2061L30,1594L54,1570L190,1570L190,1481L206,1466L221,1450L288,1450C325,1450 362,1455 370,1460L385,1469L388,1625L391,1780L2099,1780L2102,1623L2105,1465L2285,1465L2291,1569L2445,1575L2445,2095L2367,2098L2290,2101L2290,2206L2266,2230L2199,2230C2162,2230 2125,2227 2116,2224L2100,2218L2100,1890L390,1890L390,2191L380,2211L369,2230L297,2229C257,2229 219,2226 213,2223Z" style="fill:rgb(235,117,139);fill-rule:nonzero;"/>
            </g>
        </g>
    </g>
</svg>
