<?xml version="1.0" standalone="yes"?>
<svg xmlns="http://www.w3.org/2000/svg" width="127" height="144">
<path style="fill:#fffdf9; stroke:none;" d="M0 0L0 144L127 144L127 0L0 0z"/>
<path style="fill:#394167; stroke:none;" d="M19 91C14.9866 106.885 28.4397 125.225 44 128C41.1255 122.949 37.732 118.385 35.4275 113C29.5791 99.335 27.9991 84.7157 28 70C28.0006 60.2663 28.9286 49.8405 33.3773 41C36.2516 35.2881 42.3303 25.5099 50 28.2716C54.5904 29.9245 57.8922 35.4872 63 35.6235C68.0793 35.759 71.4986 29.9561 76 28.2469C84.1701 25.1448 90.1538 35.9835 93 42C82.5857 36.3561 73.6693 41.7764 63 41.642C57.338 41.5706 51.7514 39.165 46 39.054C40.9509 38.9566 35.7536 39.5076 33 44C36.3537 47.1901 36.6224 51.419 39.5131 54.7716C42.6949 58.4618 49.6185 58.9675 53.9853 57.2577C57.2901 55.9638 60.2045 50.0978 63.9252 50.6312C67.4094 51.1306 69.6232 55.9512 73.0039 57.2577C85.0616 61.9178 89.7365 51.1766 93 42C104.764 68.5722 97.624 104.281 83 128C102.327 124.555 109 107.444 109 90C112.804 91.9434 120.813 96.6314 122.681 89.8912C125.496 79.7401 114.897 68.6415 111.231 60C106.429 48.6767 104.406 36.2613 97.2261 26.0039C85.4421 9.16974 61.9185 5.80954 44 14.3264C22.8477 24.3803 23.6703 49.325 12.9383 67C9.39623 72.8335 1.16365 84.5075 6.02778 91.6782C8.81705 95.7902 15.4304 91.974 19 91z"/>
<path style="fill:#ff9101; stroke:none;" d="M61.2091 55.0864C52.7321 59.2795 58.2913 71.3617 66.8511 66.5285C72.6865 63.2337 66.7899 52.3259 61.2091 55.0864z"/>
<path style="fill:#394167; stroke:none;" d="M39 114C40.8782 113.824 42.1994 113.562 44 113C44.632 117.89 45.4151 123.082 49.2137 126.61C61.6538 138.161 82.8518 129.579 83 113C85.1059 113.644 86.7951 113.906 89 114C88.8641 108.22 86.563 104.201 84.3372 99C81.5422 92.4683 80.6537 84.6943 74.8148 79.939C68.123 74.4891 57.4119 74.8215 51.3796 81.2137C47.0389 85.8135 45.7912 92.2806 43.6273 98C41.4746 103.69 39.0558 107.758 39 114z"/>
<path style="fill:#fffdf9; stroke:none;" d="M51 90L76 90C72.4874 82.8575 70.3598 85.8036 64 85.9606C57.393 86.1238 55.2167 82.9426 51 90M50 93C49.2856 102.053 47.7515 111.786 52.9946 119.985C58.765 129.007 70.6314 128.54 75.5471 118.999C79.3303 111.657 78 101.97 78 94C72.8132 97.4268 70.251 100.496 65 95L63 95C57.6569 100.592 54.5774 97.6082 50 93z"/>
<path style="fill:#ff9101; stroke:none;" d="M63 97L62 98L62 100L63 101L65 101L66 100L66 98L65 97L63 97z"/>
</svg>
